<svg xmlns="http://www.w3.org/2000/svg" xmlns:xlink="http://www.w3.org/1999/xlink" x="0px" y="0px" viewBox="0 0 50 50" style="enable-background:new 0 0 50 50;" xml:space="preserve">
    <path d="M22.4,47.6c-0.6,0-1.4-0.2-1.9-0.7c-1-1-1-2.6,0-3.7L38.7,25L20.5,6.9c-1-1-1-2.6,0-3.7c1-1,2.6-1,3.7,0l20,20 c0.5,0.5,0.7,1.1,0.7,1.9c0,0.7-0.2,1.4-0.7,1.9l-20,20C23.8,47.4,23,47.6,22.4,47.6L22.4,47.6z M7.6,47.6c-0.6,0-1.4-0.2-1.9-0.7 c-1-1-1-2.6,0-3.7L23.9,25L5.7,6.9c-1-1-1-2.6,0-3.7c1-1,2.6-1,3.7,0l20,20c0.5,0.5,0.7,1.1,0.7,1.9c0,0.7-0.2,1.4-0.7,1.9l-20,20 C9,47.4,8.2,47.6,7.6,47.6z" style="fill: #818853;"></path>
</svg>
