<svg xmlns="http://www.w3.org/2000/svg" x="0px" y="0px" viewBox="0 0 50 48" style="enable-background:new 0 0 50 48; fill: #da853d;" xml:space="preserve"><g>	<path d="M37.7,0.2c-0.3-0.3-0.8-0.3-1.1,0c0,0,0,0,0,0L20,16.9h2.2l14.9-15l2.4,2.4L27,16.9h2.2L40.7,5.4l7.5,7.5l-4,4h2.2l3.4-3.4  c0.3-0.3,0.3-0.8,0-1.1c0,0,0,0,0,0L37.7,0.2z"></path>	<path d="M48.7,18.8c-0.1-0.2-0.4-0.3-0.6-0.3H13.7c-0.4,0-0.8,0.4-0.8,0.8c0,0.1,0,0.1,0,0.2l4.6,18.9c0.1,0.4,0.4,0.6,0.8,0.6  h25.1c0.4,0,0.7-0.2,0.8-0.6l4.6-18.9C48.9,19.2,48.8,19,48.7,18.8z M22.7,25.6h16.4c0.4,0,0.8,0.4,0.8,0.8s-0.3,0.8-0.8,0.8H22.7  c-0.4,0-0.8-0.4-0.8-0.8S22.2,25.6,22.7,25.6z M41.2,31.1H20.5c-0.4,0-0.8-0.4-0.8-0.8c0-0.4,0.3-0.8,0.8-0.8h20.7  c0.4,0,0.8,0.4,0.8,0.8C42,30.7,41.7,31.1,41.2,31.1z"></path>	<path d="M41.9,41.3c0-0.4-0.3-0.8-0.8-0.8H16.2L9.3,13C8.7,10.5,6.1,9,3.6,9.6C1.5,10.1,0,12,0,14.2V15c0,0.4,0.3,0.8,0.8,0.8  s0.8-0.4,0.8-0.8v-0.8C1.6,12.4,3,11,4.7,11c1.5,0,2.7,1,3.1,2.4l7,28.1c0.1,0.3,0.4,0.6,0.7,0.6h25.5  C41.5,42.1,41.9,41.7,41.9,41.3L41.9,41.3z"></path>	<path d="M20.3,48c1.3,0,2.3-1.1,2.3-2.4c0-1.3-1-2.4-2.3-2.4S18,44.3,18,45.6C18,46.9,19,48,20.3,48z M20.3,44.9  c0.4,0,0.8,0.4,0.8,0.8s-0.3,0.8-0.8,0.8s-0.8-0.4-0.8-0.8S19.9,44.9,20.3,44.9z"></path>	<path d="M35.9,43.3c-1.3,0-2.3,1.1-2.3,2.4c0,1.3,1,2.4,2.3,2.4s2.3-1.1,2.3-2.4C38.3,44.3,37.2,43.3,35.9,43.3z M35.9,46.4  c-0.4,0-0.8-0.4-0.8-0.8s0.3-0.8,0.8-0.8s0.8,0.4,0.8,0.8S36.4,46.4,35.9,46.4z"></path></g></svg>