<svg xmlns="http://www.w3.org/2000/svg" x="0px" y="0px" viewBox="0 0 50 50" style="enable-background:new 0 0 50 50;" xml:space="preserve"><g>	<path d="M21.5,0c-1.9,0-3.5,1.2-4.2,2.8h-5c-0.6,0-1.2,0.5-1.2,1.1v1.7H6.5C4.6,5.7,3,7.2,3,9.1v37.5C3,48.5,4.6,50,6.5,50h25.5  c0.6,0,1.2-0.5,1.2-1.1c0-0.6-0.5-1.1-1.1-1.2c0,0,0,0,0,0H6.5c-0.7,0-1.2-0.5-1.2-1.1V9.1C5.3,8.4,5.8,8,6.5,8h4.6v1.7H8.2  c0,0-0.1,0-0.1,0c-0.6,0.1-1.1,0.5-1,1.1v34.1c0,0.6,0.5,1.1,1.2,1.1h26.6c0.6,0,1.2-0.5,1.2-1.1V38c0.2,0,0.4,0,0.6,0  c0.4,0,0.8,0,1.2-0.1v8.6c0,0.6-0.5,1.1-1.2,1.1c-0.6,0-1.2,0.5-1.2,1.1c0,0.6,0.5,1.1,1.1,1.2c0,0,0,0,0,0c1.9,0,3.5-1.5,3.5-3.4  v-9.1c0.1,0,0.3-0.1,0.4-0.1l4.4,7c0.3,0.5,1.1,0.7,1.6,0.4c0.5-0.3,0.7-1,0.4-1.6l0,0l-4.3-6.9c2.7-1.8,4.5-4.9,4.5-8.4  c0-4.4-2.9-8.2-6.9-9.6V9.1c0-1.9-1.6-3.4-3.5-3.4h-4.6V4c0-0.6-0.5-1.1-1.2-1.1h-5C25,1.2,23.4,0,21.5,0z M21.5,2.3  c1.2,0,2.1,0.8,2.3,1.9c0.1,0.5,0.6,0.9,1.1,0.9h4.7v4.5H13.4V5.1h4.7c0.6,0,1-0.4,1.1-0.9C19.4,3.1,20.4,2.3,21.5,2.3z M31.9,8  h4.6c0.7,0,1.2,0.5,1.2,1.1v8.6c-0.4,0-0.8-0.1-1.2-0.1c-0.2,0-0.4,0-0.6,0v-6.9c0-0.6-0.5-1.1-1.2-1.1h-2.9V8z M9.4,11.9h24.3V18  c-4.3,1.2-7.5,5.2-7.5,9.8s3.2,8.6,7.5,9.8v6.1H9.4V11.9z M12.7,17.6c-0.6,0-1.1,0.6-1.1,1.2c0,0.6,0.6,1.1,1.2,1.1h12.7  c0.6,0,1.2-0.5,1.2-1.1c0-0.6-0.5-1.1-1.1-1.2c0,0,0,0,0,0H12.8C12.8,17.6,12.8,17.6,12.7,17.6z M36.6,19.9c4.5,0,8.1,3.5,8.1,8  s-3.6,8-8.1,8s-8.1-3.5-8.1-8S32.1,19.9,36.6,19.9z M12.7,23.3c-0.6,0-1.1,0.6-1.1,1.2c0,0.6,0.6,1.1,1.2,1.1c0,0,0,0,0,0h9.3  c0.6,0,1.2-0.5,1.2-1.1c0-0.6-0.5-1.1-1.1-1.2c0,0,0,0,0,0h-9.3C12.8,23.3,12.8,23.3,12.7,23.3z M12.7,29c-0.6,0-1.1,0.6-1.1,1.2  c0,0.6,0.6,1.1,1.2,1.1h9.3c0.6,0,1.2-0.5,1.2-1.1c0-0.6-0.5-1.1-1.1-1.2c0,0,0,0,0,0h-9.3C12.8,29,12.8,29,12.7,29z M12.7,34.7  c-0.6,0-1.1,0.6-1.1,1.2c0,0.6,0.6,1.1,1.2,1.1h12.7c0.6,0,1.2-0.5,1.2-1.1c0-0.6-0.5-1.1-1.1-1.2c0,0,0,0,0,0H12.8  C12.8,34.7,12.8,34.7,12.7,34.7z" style="fill: #da853d"></path></g></svg>