<svg xmlns="http://www.w3.org/2000/svg" xmlns:xlink="http://www.w3.org/1999/xlink" x="0px" y="0px" viewBox="0 0 50 50" style="enable-background:new 0 0 50 50;" xml:space="preserve"><g>	<path d="M48.5,42.7l-9.8-8.9c-0.8-0.7-0.9-1.8-0.4-2.7c2.3-3.8,3.4-8.4,2.7-13.4C39.7,8.4,32,1,22.6,0.1C9.7-1.2-1.2,9.6,0.1,22.6  C1,32,8.4,39.7,17.7,40.9c4.9,0.7,9.5-0.4,13.4-2.7c0.9-0.5,2-0.4,2.7,0.4l9.1,10c1.6,1.8,4.4,1.8,6.1,0  C50.5,46.9,50.2,44.2,48.5,42.7L48.5,42.7z M20.8,36.2c-8.5,0-15.4-6.9-15.4-15.4S12.3,5.4,20.8,5.4s15.4,6.9,15.4,15.4  S29.3,36.2,20.8,36.2z" style="fill: #da853d"></path></g></svg>