<svg xmlns="http://www.w3.org/2000/svg" x="0px" y="0px" viewBox="0 0 50 50" style="enable-background:new 0 0 50 50; fill: #da853d" xml:space="preserve"><g>	<path d="M47.1,2H2.9C1.3,2,0,3.3,0,4.9V35C0,36.7,1.3,38,2.9,38h16.6l-0.8,4.2h-3.4c-1,0-1.9,0.8-1.9,1.9v2.1c0,1,0.8,1.9,1.9,1.9  h19.6c1,0,1.9-0.8,1.9-1.9V44c0-1-0.8-1.9-1.9-1.9h-3.4L30.5,38h16.6c1.6,0,2.9-1.3,2.9-2.9V4.9C50,3.3,48.7,2,47.1,2z M2.9,3.7  h44.2c0.7,0,1.3,0.6,1.3,1.3v26.3H1.7V4.9C1.7,4.2,2.2,3.7,2.9,3.7z M35,44v2.1c0,0.1-0.1,0.2-0.2,0.2H15.2c-0.1,0-0.2-0.1-0.2-0.2  V44c0-0.1,0.1-0.2,0.2-0.2h19.6C34.9,43.8,35,43.9,35,44z M29.7,42.1h-9.3l0.8-4.2h7.6L29.7,42.1z M47.1,36.3H2.9  c-0.7,0-1.3-0.6-1.3-1.3v-2.1h46.7V35C48.3,35.7,47.8,36.3,47.1,36.3z"></path>	<path d="M8.3,26.3h10.4c1.3,2,3.6,3.3,6.2,3.3s4.9-1.3,6.2-3.3h10.4c0.5,0,0.8-0.4,0.8-0.8V6.2c0-0.5-0.4-0.8-0.8-0.8H27.5  c-1,0-1.9,0.4-2.5,1.1c-0.6-0.7-1.5-1.1-2.5-1.1H8.3c-0.5,0-0.8,0.4-0.8,0.8v19.2C7.5,25.9,7.9,26.3,8.3,26.3z M25,27.9  c-3.2,0-5.8-2.6-5.8-5.9s2.6-5.9,5.8-5.9s5.8,2.6,5.8,5.9S28.2,27.9,25,27.9z M27.5,7h13.3v17.6h-8.8c0.3-0.8,0.4-1.6,0.4-2.5  c0-3.9-2.9-7.1-6.7-7.5V8.7C25.8,7.8,26.6,7,27.5,7z M9.2,7h13.3c0.9,0,1.7,0.8,1.7,1.7v5.9c-3.7,0.4-6.7,3.6-6.7,7.5  c0,0.9,0.2,1.7,0.4,2.5H9.2V7z"></path>	<path d="M30,9.5h8.3c0.5,0,0.8-0.4,0.8-0.8s-0.4-0.8-0.8-0.8H30c-0.5,0-0.8,0.4-0.8,0.8S29.5,9.5,30,9.5z"></path>	<path d="M28.3,12h10c0.5,0,0.8-0.4,0.8-0.8s-0.4-0.8-0.8-0.8h-10c-0.5,0-0.8,0.4-0.8,0.8S27.9,12,28.3,12z"></path>	<path d="M28.3,14.5h10c0.5,0,0.8-0.4,0.8-0.8s-0.4-0.8-0.8-0.8h-10c-0.5,0-0.8,0.4-0.8,0.8S27.9,14.5,28.3,14.5z"></path>	<path d="M38.3,15.4h-5.8c-0.5,0-0.8,0.4-0.8,0.8s0.4,0.8,0.8,0.8h5.8c0.5,0,0.8-0.4,0.8-0.8S38.8,15.4,38.3,15.4z"></path>	<path d="M38.3,17.9h-4.2c-0.5,0-0.8,0.4-0.8,0.8s0.4,0.8,0.8,0.8h4.2c0.5,0,0.8-0.4,0.8-0.8S38.8,17.9,38.3,17.9z"></path>	<path d="M38.3,20.4h-4.2c-0.5,0-0.8,0.4-0.8,0.8s0.4,0.8,0.8,0.8h4.2c0.5,0,0.8-0.4,0.8-0.8S38.8,20.4,38.3,20.4z"></path>	<path d="M11.7,9.5H20c0.5,0,0.8-0.4,0.8-0.8S20.5,7.9,20,7.9h-8.3c-0.5,0-0.8,0.4-0.8,0.8S11.2,9.5,11.7,9.5z"></path>	<path d="M11.7,12h10c0.5,0,0.8-0.4,0.8-0.8s-0.4-0.8-0.8-0.8h-10c-0.5,0-0.8,0.4-0.8,0.8S11.2,12,11.7,12z"></path>	<path d="M11.7,14.5h10c0.5,0,0.8-0.4,0.8-0.8s-0.4-0.8-0.8-0.8h-10c-0.5,0-0.8,0.4-0.8,0.8S11.2,14.5,11.7,14.5z"></path>	<path d="M11.7,17.1h5.8c0.5,0,0.8-0.4,0.8-0.8s-0.4-0.8-0.8-0.8h-5.8c-0.5,0-0.8,0.4-0.8,0.8S11.2,17.1,11.7,17.1z"></path>	<path d="M15.8,17.9h-4.2c-0.5,0-0.8,0.4-0.8,0.8s0.4,0.8,0.8,0.8h4.2c0.5,0,0.8-0.4,0.8-0.8S16.3,17.9,15.8,17.9z"></path>	<path d="M15.8,20.4h-4.2c-0.5,0-0.8,0.4-0.8,0.8s0.4,0.8,0.8,0.8h4.2c0.5,0,0.8-0.4,0.8-0.8S16.3,20.4,15.8,20.4z"></path>	<path d="M28.7,21.3L22.9,18c-0.3-0.1-0.6-0.1-0.8,0c-0.3,0.1-0.4,0.4-0.4,0.7v6.7c0,0.3,0.2,0.6,0.4,0.7c0.1,0.1,0.3,0.1,0.4,0.1  c0.1,0,0.3,0,0.4-0.1l5.8-3.3c0.3-0.1,0.4-0.4,0.4-0.7S29,21.5,28.7,21.3z M23.3,24v-3.8l3.3,1.9L23.3,24z"></path>	<path d="M30,33.8H20c-0.5,0-0.8,0.4-0.8,0.8c0,0.5,0.4,0.8,0.8,0.8h10c0.5,0,0.8-0.4,0.8-0.8C30.8,34.2,30.5,33.8,30,33.8z"></path>	<path d="M39.2,33.8h-5c-0.5,0-0.8,0.4-0.8,0.8c0,0.5,0.4,0.8,0.8,0.8h5c0.5,0,0.8-0.4,0.8-0.8C40,34.2,39.6,33.8,39.2,33.8z"></path>	<path d="M15.8,33.8h-5c-0.5,0-0.8,0.4-0.8,0.8c0,0.5,0.4,0.8,0.8,0.8h5c0.5,0,0.8-0.4,0.8-0.8C16.7,34.2,16.3,33.8,15.8,33.8z"></path></g></svg>